HIERARCHY
ROOT Hips
{
	OFFSET 0.00000 0.00000 0.00000
	CHANNELS 6 Xposition Yposition Zposition Zrotation Yrotation Xrotation 
	JOINT LHipJoint
	{
		OFFSET 0 0 0
		CHANNELS 3 Zrotation Yrotation Xrotation
		JOINT LeftHip
		{
			OFFSET 1.62964 -1.40469 0.78906
			CHANNELS 3 Zrotation Yrotation Xrotation
			JOINT LeftKnee
			{
				OFFSET 2.29640 -6.30932 0.00000
				CHANNELS 3 Zrotation Yrotation Xrotation
				JOINT LeftAnkle
				{
					OFFSET 2.29451 -6.30412 0.00000
					CHANNELS 3 Zrotation Yrotation Xrotation
					JOINT LeftToe
					{
						OFFSET 0.03611 -0.09921 1.56387
						CHANNELS 3 Zrotation Yrotation Xrotation
						End Site
						{
							OFFSET 0.00000 -0.00000 0.80291
						}
					}
				}
			}
		}
	}
	JOINT RHipJoint
	{
		OFFSET 0 0 0
		CHANNELS 3 Zrotation Yrotation Xrotation
		JOINT RightHip
		{
			OFFSET -1.73712 -1.40469 0.78906
			CHANNELS 3 Zrotation Yrotation Xrotation
			JOINT RightKnee
			{
				OFFSET -2.28137 -6.26801 0.00000
				CHANNELS 3 Zrotation Yrotation Xrotation
				JOINT RightAnkle
				{
					OFFSET -2.28681 -6.28298 0.00000
					CHANNELS 3 Zrotation Yrotation Xrotation
					JOINT RightToe
					{
						OFFSET -0.15927 -0.43759 1.61103
						CHANNELS 3 Zrotation Yrotation Xrotation
						End Site
						{
							OFFSET -0.00000 -0.00000 0.84630
						}
					}
				}
			}
		}
	}
	JOINT lowerback
	{
		OFFSET 0 0 0
		CHANNELS 3 Zrotation Yrotation Xrotation
		JOINT Chest
		{
			OFFSET -0.04227 2.04338 -0.00225
			CHANNELS 3 Zrotation Yrotation Xrotation
			JOINT Chest2
			{
				OFFSET -0.02148 2.04482 -0.04273
				CHANNELS 3 Zrotation Yrotation Xrotation
				JOINT lowerneck
				{
					OFFSET 0 0 0
					CHANNELS 3 Zrotation Yrotation Xrotation
					JOINT Neck
					{
						OFFSET 0.09180 1.44629 0.19359
						CHANNELS 3 Zrotation Yrotation Xrotation
						JOINT Head
						{
							OFFSET 0.00887 1.40645 0.14750
							CHANNELS 3 Zrotation Yrotation Xrotation
							End Site
							{
								OFFSET -0.00669 1.50671 0.03707
							}
						}
					}
				}
				JOINT LeftCollar
				{
					OFFSET 0 0 0
					CHANNELS 3 Zrotation Yrotation Xrotation
					JOINT LeftShoulder
					{
						OFFSET 2.17674 1.86763 -0.06520
CHANNELS 3 Zrotation Xrotation Yrotation
						JOINT LeftElbow
						{
OFFSET 0 -4.657760 0.000000
CHANNELS 3 Zrotation Xrotation Yrotation
							JOINT LeftWrist
							{
OFFSET 0 -3.555390 0.000000
CHANNELS 3 Zrotation Xrotation Yrotation
								JOINT lhand
								{
									OFFSET 0 0 0
CHANNELS 3 Zrotation Xrotation Yrotation
									JOINT LFingers
									{
OFFSET 0 -0.707260 0.000000
CHANNELS 3 Zrotation Xrotation Yrotation
										End Site
										{
OFFSET 0 -0.570220 0.000000
										}
									}
								}
								JOINT LThumb
								{
OFFSET 0 0.000000 0.000000
CHANNELS 3 Zrotation Xrotation Yrotation
									End Site
									{
OFFSET 0 -0.578920 0.578920
									}
								}
							}
						}
					}
				}
				JOINT RightCollar
				{
					OFFSET 0 0 0
					CHANNELS 3 Zrotation Yrotation Xrotation
					JOINT RightShoulder
					{
						OFFSET -2.80694 1.55459 -0.32496
CHANNELS 3 Zrotation Xrotation Yrotation
						JOINT RightElbow
						{
OFFSET 0 -4.719250 -0.000000
CHANNELS 3 Zrotation Xrotation Yrotation
							JOINT RightWrist
							{
OFFSET 0 -3.569900 0.000000
CHANNELS 3 Zrotation Xrotation Yrotation
								JOINT rhand
								{
									OFFSET 0 0 0
CHANNELS 3 Zrotation Xrotation Yrotation
									JOINT RFingers
									{
OFFSET 0 -0.507760 0.000000
CHANNELS 3 Zrotation Xrotation Yrotation
										End Site
										{
OFFSET 0 -0.409370 0.000000
										}
									}
								}
								JOINT RThumb
								{
OFFSET 0 0.000000 0.000000
CHANNELS 3 Zrotation Xrotation Yrotation
									End Site
									{
OFFSET 0 -0.415620 0.415620
									}
								}
							}
						}
					}
				}
			}
		}
	}
}
MOTION
Frames: 8
Frame Time: 0.008333333333333333
7.632400 16.262700 30.917700 177.538000 -1.624800 -155.583000 0.000000 0.000000 0.000000 -19.294700 -18.188300 -19.802200 0.697100 5.337000 14.872200 0.549500 1.321300 -14.543400 6.101400 -14.525900 -45.387500 0.000000 0.000000 0.000000 18.861600 13.544400 -17.294100 -0.201600 -2.891000 7.975400 -1.410900 -0.929100 -22.807900 -1.752000 8.329300 -23.718800 -6.652500 -1.814400 -29.097500 -0.198900 -0.681000 -0.671100 3.083600 -0.981900 14.699500 -0.827300 -2.372000 -8.564200 3.876400 -3.487800 7.052700 1.227000 -1.594400 3.941600 0.000000 0.000000 0.000000 3.617700 3.845300 -10.479800 11.820400 -19.534700 2.041800 24.438500 2.308400 11.721100 0.000000 0.000000 0.000000 -7.125000 0.000000 0.000000 -1.906800 17.146200 -1.260600 0.000000 0.000000 0.000000 1.446000 6.028700 3.475100 -16.214100 -25.810100 -3.738700 -10.312700 11.759200 56.784600 0.000000 0.000000 0.000000 7.125000 0.000000 -0.000000 82.093600 75.735900 -67.269700
7.632190 16.258111 30.916032 177.274499 -1.542080 -155.658791 0.000000 0.000000 0.000000 -19.695029 -18.295972 -19.713690 0.716181 5.407978 15.076029 0.556128 1.383170 -14.654618 6.132229 -14.555333 -45.510303 0.000000 0.000000 0.000000 18.570489 13.304334 -17.421705 -0.215761 -2.989939 8.250664 -1.436301 -0.735295 -22.936990 -1.777265 8.385815 -23.892175 -6.946231 -1.872057 -29.047565 -0.276959 -0.648880 -0.644040 3.170631 -0.985578 14.701999 -1.168799 -2.310425 -8.308058 4.421860 -3.410802 6.789505 1.477776 -1.550938 3.819460 0.000000 0.000000 0.000000 3.684955 3.771617 -10.250217 11.843486 -19.569513 2.049578 23.932185 2.367915 11.921456 0.000000 0.000000 0.000000 -7.125000 0.000000 0.000000 -2.270275 16.979913 -1.509409 0.000000 0.000000 0.000000 1.487560 6.072870 3.872863 -16.459852 -26.140108 -3.846342 -11.592830 12.444588 55.591774 0.000000 0.000000 0.000000 7.125000 0.000000 0.000000 77.178453 76.107752 -62.875235
7.627410 16.256846 30.911229 177.336631 -1.604224 -155.699411 0.000000 0.000000 0.000000 -19.623254 -18.374577 -19.809510 0.744925 5.513150 15.378224 0.564011 1.341873 -14.734542 6.061522 -14.487703 -45.228101 0.000000 0.000000 0.000000 18.618070 13.464372 -17.530232 -0.236938 -3.132606 8.648158 -1.458380 -0.887514 -23.167601 -1.812517 8.464043 -24.132709 -6.861637 -1.857975 -29.100288 -0.250166 -0.651718 -0.609877 3.152613 -0.982464 14.767868 -1.496724 -2.257086 -8.115524 4.836585 -3.338566 6.657091 1.682014 -1.512591 3.752581 0.000000 0.000000 0.000000 3.715187 3.757832 -10.395985 11.918088 -19.681629 2.074592 23.934617 2.309295 11.518856 0.000000 0.000000 0.000000 -7.125000 0.000000 0.000000 -2.248083 17.416224 -1.473322 0.000000 0.000000 0.000000 1.499478 6.060711 4.234296 -16.686568 -26.442638 -3.946821 -13.067228 13.076348 54.397982 0.000000 0.000000 0.000000 7.125000 0.000000 0.000000 72.006227 76.475694 -58.345890
7.626071 16.251870 30.903612 177.399339 -1.624396 -155.849225 0.000000 0.000000 0.000000 -19.613291 -18.267160 -19.674344 0.747405 5.522370 15.404581 0.555962 1.375828 -14.649627 6.120238 -14.543843 -45.462237 0.000000 0.000000 0.000000 18.715734 13.826378 -17.374331 -0.257556 -3.264956 9.017252 -1.487886 -1.114913 -23.484698 -1.795869 8.427245 -24.019450 -6.805090 -1.840018 -29.098384 -0.234099 -0.635228 -0.540831 3.147236 -0.971051 14.847254 -1.606105 -2.256866 -7.685644 4.963160 -3.328222 6.397139 1.745626 -1.514679 3.582921 0.000000 0.000000 0.000000 3.799589 3.785262 -10.712505 12.015804 -19.828334 2.107711 23.878847 2.026151 11.663655 0.000000 0.000000 0.000000 -7.125000 0.000000 0.000000 -2.294368 17.264869 -1.511380 0.000000 0.000000 0.000000 1.521771 6.044511 4.564142 -16.892232 -26.715409 -4.038762 -14.926164 14.087841 52.622613 0.000000 0.000000 0.000000 7.125000 0.000000 0.000000 64.066684 76.747783 -51.291142
7.628234 16.250811 30.901955 177.395937 -1.622309 -155.960758 0.000000 0.000000 0.000000 -19.641102 -18.323148 -19.536608 0.753952 5.545908 15.472338 0.557229 1.474792 -14.711983 6.057145 -14.483507 -45.210747 0.000000 0.000000 0.000000 18.737572 13.997149 -17.207117 -0.260243 -3.282281 9.065652 -1.489459 -1.306110 -23.571164 -1.793344 8.421646 -24.002232 -6.847756 -1.842044 -29.003395 -0.241678 -0.623011 -0.517841 3.168996 -0.965934 14.828870 -1.554063 -2.261453 -7.674733 4.918962 -3.339901 6.460598 1.721010 -1.520584 3.600882 0.000000 0.000000 0.000000 3.900787 3.799787 -10.879612 12.095339 -19.947464 2.134733 24.205758 1.876854 10.998316 0.000000 0.000000 0.000000 -7.125000 0.000000 0.000000 -2.032425 17.955457 -1.308149 0.000000 0.000000 0.000000 1.579581 6.018750 4.923388 -17.110958 -27.003887 -4.137604 -15.806041 14.590575 53.447907 0.000000 0.000000 0.000000 7.125000 0.000000 0.000000 67.247655 77.326965 -54.818278
7.629296 16.247470 30.897938 177.347855 -1.640297 -155.968885 0.000000 0.000000 0.000000 -19.711241 -18.298368 -19.590350 0.766387 5.590296 15.600246 0.559994 1.404462 -14.713652 6.150513 -14.572565 -45.582647 0.000000 0.000000 0.000000 18.705176 13.936496 -17.236613 -0.265038 -3.311902 9.148352 -1.493706 -1.275811 -23.592073 -1.758735 8.344363 -23.765063 -6.980215 -1.892282 -29.005347 -0.215443 -0.652225 -0.536930 3.257504 -0.989226 14.810416 -1.278763 -2.392975 -7.858533 4.371292 -3.511187 6.884920 1.477692 -1.611121 3.768941 0.000000 0.000000 0.000000 3.923662 3.816604 -10.875546 12.132276 -20.002744 2.147307 24.187489 2.048940 10.476999 0.000000 0.000000 0.000000 -7.125000 0.000000 0.000000 -2.020661 18.524093 -1.274768 0.000000 0.000000 0.000000 1.557243 6.034518 5.379560 -17.345117 -27.310408 -4.244485 -15.903054 14.405059 54.266445 0.000000 0.000000 0.000000 7.125000 0.000000 0.000000 70.861609 77.545548 -58.424051
7.628250 16.246175 30.896282 177.440104 -1.743392 -156.001154 0.000000 0.000000 0.000000 -19.578359 -18.430225 -19.645238 0.787088 5.663551 15.811202 0.564436 1.399662 -14.767154 6.045987 -14.472590 -45.165641 0.000000 0.000000 0.000000 18.837692 13.893719 -17.283539 -0.274221 -3.368449 9.306285 -1.508411 -1.258325 -23.698916 -1.750293 8.325009 -23.705821 -6.914221 -1.917767 -29.011440 -0.145717 -0.711374 -0.518284 3.275271 -1.012407 14.843585 -1.184767 -2.397311 -8.057831 4.097475 -3.514620 7.226801 1.368178 -1.614981 3.918966 0.000000 0.000000 0.000000 3.873311 3.716782 -10.702138 12.153136 -20.033925 2.154490 24.143076 2.082300 10.488245 0.000000 0.000000 0.000000 -7.125000 0.000000 0.000000 -2.052567 18.515927 -1.295267 0.000000 0.000000 0.000000 1.449906 6.101422 5.999702 -17.614878 -27.661095 -4.368982 -15.457437 13.506959 55.699925 0.000000 0.000000 0.000000 7.125000 0.000000 0.000000 77.414975 77.548876 -64.708095
7.627753 16.245809 30.888478 177.549790 -1.714381 -156.188382 0.000000 0.000000 0.000000 -19.522202 -18.392854 -19.412105 0.792846 5.683691 15.869296 0.572553 1.421972 -14.877940 5.873106 -14.304129 -44.470125 0.000000 0.000000 0.000000 18.996967 13.762796 -17.150791 -0.281645 -3.413242 9.431418 -1.528347 -1.043038 -23.769012 -1.705228 8.222735 -23.392895 -6.832026 -1.903884 -29.005730 -0.119395 -0.706424 -0.426145 3.263025 -1.004661 14.949908 -1.193715 -2.376448 -8.051536 4.109068 -3.488940 7.260742 1.375407 -1.602120 3.929571 0.000000 0.000000 0.000000 3.912392 3.588777 -10.672939 12.161751 -20.046718 2.157376 24.311541 2.014110 10.186774 0.000000 0.000000 0.000000 -7.125000 0.000000 0.000000 -1.919577 18.829324 -1.198695 0.000000 0.000000 0.000000 1.427490 6.071871 6.387198 -17.732367 -27.812951 -4.423674 -15.637824 13.156469 56.311543 0.000000 0.000000 0.000000 7.125000 0.000000 0.000000 80.314729 77.647117 -67.639766
